<svg width="19" height="15" viewBox="0 0 19 15" fill="none" xmlns="http://www.w3.org/2000/svg">
<path d="M6.71309 8.84074C6.71309 10.4443 8.01755 11.7488 9.62109 11.7488C11.2246 11.7488 12.5286 10.4443 12.5286 8.84074C12.5286 7.2372 11.2246 5.93274 9.62109 5.93274C8.01755 5.93274 6.71309 7.2377 6.71309 8.84074ZM0.605469 4.71151V12.971C0.605469 14.0721 1.49821 14.9648 2.5993 14.9648H16.6429C17.744 14.9648 18.6367 14.0721 18.6367 12.971V4.71151C18.6367 3.61042 17.744 2.71768 16.6429 2.71768H14.1905V2.02781C14.1905 1.06429 13.4099 0.283203 12.4459 0.283203H6.79633C5.83231 0.283203 5.05172 1.06429 5.05172 2.02781V2.71718H2.5993C1.49821 2.71768 0.605469 3.61042 0.605469 4.71151ZM5.21771 8.84074C5.21771 6.41275 7.1931 4.43736 9.62109 4.43736C12.0486 4.43736 14.024 6.41275 14.024 8.84074C14.024 11.2687 12.0486 13.2441 9.62109 13.2441C7.1931 13.2441 5.21771 11.2687 5.21771 8.84074Z" fill="white"/>
</svg>
