<svg width="18" height="20" viewBox="0 0 18 20" fill="none" xmlns="http://www.w3.org/2000/svg">
<path fill-rule="evenodd" clip-rule="evenodd" d="M9 1.75C7.13695 1.75 5.29938 1.85779 3.49314 2.06741C2.78933 2.14909 2.25 2.76078 2.25 3.50699V17.7865L8.66459 14.5792C8.87574 14.4736 9.12426 14.4736 9.33541 14.5792L15.75 17.7865V3.50699C15.75 2.76078 15.2107 2.14909 14.5069 2.06741C12.7006 1.85779 10.863 1.75 9 1.75ZM3.32022 0.577409C5.18374 0.361142 7.07904 0.25 9 0.25C10.921 0.25 12.8163 0.361142 14.6798 0.57741C16.1772 0.751186 17.25 2.03722 17.25 3.50699V19C17.25 19.2599 17.1154 19.5013 16.8943 19.638C16.6732 19.7746 16.3971 19.7871 16.1646 19.6708L9 16.0885L1.83541 19.6708C1.60292 19.7871 1.32681 19.7746 1.1057 19.638C0.884589 19.5013 0.75 19.2599 0.75 19V3.50699C0.75 2.03722 1.82283 0.751186 3.32022 0.577409Z" fill="#0F172A"/>
</svg>
